<?xml version="1.0" encoding="UTF-8" standalone="no"?>
<svg
   xmlns="http://www.w3.org/2000/svg"
   fill="none"
   version="1.1"
   viewBox="0 0 34 34"
   width="34"
   height="34" >
  <g
     id="g131"
     transform="translate(-11.913511,-28.99208)">
    <path
       d="m 34.017711,46.40928 c 0,-2.7994 -2.2857,-5.0693 -5.1762,-5.0693 -2.8915,0 -5.1752,2.2611 -5.1752,5.0693 0,1.0374 0.32326,2.0493 0.92503,2.8925 a 4.9424,4.8722 0 0 0 2.4309,1.8071 l -2.0341,10.41 h 7.636 l -1.9634,-10.41 c 1.9625,-0.75304 3.356,-2.5121 3.356,-4.7006 z"
       fill="#1a3967"
       style="stroke-width:0.98756"
       id="path4-2" />
    <path
       d="m 45.222711,46.33328 c 0,-8.7561 -7.3137,-15.868 -16.308,-15.868 -8.9947,0 -16.311,7.1049 -16.311,15.868 0,5.8155 3.2107,10.876 7.995,13.602 l 1.0265,-6.7833 c -1.592677,-1.71602 -2.482977,-3.953459 -2.4986,-6.2793 0,-5.2046 4.3546,-9.4385 9.7068,-9.4385 5.3512,0 9.7078,4.2339 9.7078,9.4395 0.0014,2.349415 -0.885955,4.614917 -2.4886,6.3538 l 1.0344,6.7833 c 4.8887,-2.7288 8.1363,-7.8599 8.1363,-13.675"
       fill="#ea7d1f"
       style="stroke-width:0.98756"
       id="path6-9" />
  </g>
</svg>
