<svg xmlns="http://www.w3.org/2000/svg" width="256" height="256" fill="none" viewBox="0 0 256 256">
  <path fill="#B9C0D4" d="M75.473 180.686 68.143 232A119.996 119.996 0 0 1 128.418 8a119.999 119.999 0 0 1 109.544 168.038A120 120 0 0 1 187.858 232l-7.331-51.314A74.396 74.396 0 0 0 128.26 53.599a74.4 74.4 0 0 0-68.644 103.707 74.389 74.389 0 0 0 15.857 23.38Z"/>
  <path fill="#404968" d="M173 128c0 19.302-12.153 35.766-29.224 42.157L156.75 248h-57.5l12.974-77.843C95.153 163.766 83 147.302 83 128c0-24.853 20.147-45 45-45s45 20.147 45 45Z"/>
  <path fill="#ED7F22" stroke="#fff" stroke-width="5" d="m 253.07695,166.02273 c 0.72791,1.979 0.11373,4.18549 -1.45583,5.59582 l -9.84955,8.96241 c 0.25022,1.88803 0.3867,3.82154 0.3867,5.7778 0,1.95626 -0.13648,3.88979 -0.3867,5.7778 l 9.84955,8.96242 c 1.56956,1.41033 2.18374,3.61682 1.45583,5.59583 -1.00088,2.70692 -2.20649,5.3001 -3.59407,7.8023 l -1.06912,1.84253 c -1.50131,2.5022 -3.18461,4.86791 -5.02714,7.09714 -1.34208,1.6378 -3.57131,2.18374 -5.57307,1.54682 l -12.67022,-4.02627 c -3.04814,2.34297 -6.41473,4.29923 -10.00879,5.7778 l -2.84341,12.98868 c -0.45495,2.07 -2.04725,3.70781 -4.14,4.04901 -3.13912,0.52319 -6.36923,0.79615 -9.66758,0.79615 -3.29835,0 -6.52846,-0.27296 -9.66758,-0.79615 -2.09274,-0.3412 -3.68505,-1.97901 -4.14,-4.04901 l -2.8434,-12.98868 c -3.59407,-1.47857 -6.96067,-3.43483 -10.0088,-5.7778 l -12.64747,4.04901 c -2.00175,0.63693 -4.23098,0.0683 -5.57307,-1.54681 -1.84253,-2.22924 -3.52582,-4.59495 -5.02715,-7.09715 l -1.06912,-1.84252 c -1.38757,-2.5022 -2.59318,-5.09539 -3.59406,-7.80231 -0.72791,-1.97901 -0.11374,-4.18549 1.45582,-5.59582 l 9.84956,-8.96242 c -0.25022,-1.91076 -0.3867,-3.84429 -0.3867,-5.80055 0,-1.95626 0.13648,-3.88977 0.3867,-5.7778 l -9.84956,-8.96241 c -1.56956,-1.41033 -2.18373,-3.61682 -1.45582,-5.59582 1.00088,-2.70693 2.20649,-5.30011 3.59406,-7.80231 l 1.06912,-1.84253 c 1.50133,-2.50219 3.18462,-4.86791 5.02715,-7.09714 1.34209,-1.6378 3.57132,-2.18373 5.57307,-1.54681 l 12.67022,4.02626 c 3.04813,-2.34296 6.41473,-4.29923 10.0088,-5.7778 l 2.8434,-12.98868 c 0.45495,-2.07 2.04725,-3.7078 4.14,-4.04901 3.13912,-0.54593 6.36923,-0.8189 9.66758,-0.8189 3.29835,0 6.52846,0.27297 9.66758,0.79615 2.09275,0.34121 3.68506,1.97901 4.14,4.04901 l 2.84341,12.98868 c 3.59406,1.47857 6.96065,3.43484 10.00878,5.7778 l 12.67022,-4.02626 c 2.00176,-0.63692 4.23099,-0.0682 5.57308,1.54681 1.84253,2.22923 3.52582,4.59495 5.02714,7.09714 l 1.06912,1.84253 c 1.38759,2.5022 2.59319,5.09539 3.59407,7.80231 z m -54.57065,38.53384 a 18.197805,18.197805 0 1 0 0,-36.39561 18.197805,18.197805 0 1 0 0,36.39561 z"/>
</svg>
