<?xml version="1.0" encoding="UTF-8" standalone="no"?>
<svg
   width="256"
   height="256"
   fill="none"
   viewBox="0 0 256 256"
   version="1.1"
   id="svg10"
   xmlns="http://www.w3.org/2000/svg"
   xmlns:svg="http://www.w3.org/2000/svg">
  <defs
     id="defs14" />
  <path
     fill="#B9C0D4"
     d="M75.473 180.686 68.143 232A119.996 119.996 0 0 1 128.418 8a119.999 119.999 0 0 1 109.544 168.038A120 120 0 0 1 187.858 232l-7.331-51.314A74.396 74.396 0 0 0 128.26 53.599a74.4 74.4 0 0 0-68.644 103.707 74.389 74.389 0 0 0 15.857 23.38Z"
     id="path2" />
  <path
     fill="#404968"
     d="M173 128c0 19.302-12.153 35.766-29.224 42.157L156.75 248h-57.5l12.974-77.843C95.153 163.766 83 147.302 83 128c0-24.853 20.147-45 45-45s45 20.147 45 45Z"
     id="path4" />
  <path
     d="m 145.49758,145.5 v 100 h 40 v -100 z m 60,0 v 100 h 40.00004 v -100 z"
     fill="#808080"
     font-family="sans-serif"
     font-weight="400"
     overflow="visible"
     style="font-variant-ligatures:normal;font-variant-position:normal;font-variant-caps:normal;font-variant-numeric:normal;font-variant-alternates:normal;font-feature-settings:normal;text-indent:0;text-decoration-line:none;text-decoration-style:solid;text-decoration-color:#000000;text-transform:none;text-orientation:mixed;shape-padding:0;isolation:auto;mix-blend-mode:normal;stroke:#ffffff;stroke-width:5;stroke-dasharray:none;stroke-opacity:1;fill:#ed7f22;fill-opacity:1"
     white-space="normal"
     id="path1216" />
</svg>
