<svg xmlns="http://www.w3.org/2000/svg" width="256" height="256" fill="none" viewBox="0 0 256 256">
  <path fill="#B9C0D4" d="M75.473 180.686 68.143 232A119.996 119.996 0 0 1 128.418 8a119.999 119.999 0 0 1 109.544 168.038A120 120 0 0 1 187.858 232l-7.331-51.314A74.396 74.396 0 0 0 128.26 53.599a74.4 74.4 0 0 0-68.644 103.707 74.389 74.389 0 0 0 15.857 23.38Z"/>
  <path fill="#404968" d="M173 128c0 19.302-12.153 35.766-29.224 42.157L156.75 248h-57.5l12.974-77.843C95.153 163.766 83 147.302 83 128c0-24.853 20.147-45 45-45s45 20.147 45 45Z"/>
  <path fill="#BB1139" stroke="#fff" stroke-width="5" d="M188.117 158.192c5.27-8.923 18.496-8.923 23.766 0l39.769 67.32c5.203 8.807-1.242 19.988-11.883 19.988h-79.538c-10.641 0-17.086-11.181-11.883-19.988l39.769-67.32Z"/>
  <path fill="#fff" d="M208 226.05c0 4.391-3.582 7.95-8 7.95s-8-3.559-8-7.95 3.582-7.95 8-7.95 8 3.559 8 7.95Zm0-37.11c0-4.385-3.582-7.94-8-7.94s-8 3.555-8 7.94v15.92c0 4.385 3.582 7.94 8 7.94s8-3.555 8-7.94v-15.92Z"/>
</svg>
