<?xml version="1.0" encoding="UTF-8" standalone="no"?>
<svg
   width="38.002117"
   height="47"
   viewBox="0 0 38.002117 47"
   version="1.1"
   id="svg14"
   sodipodi:docname="text-openvpn-config.svg"
   inkscape:version="1.1.2 (0a00cf5339, 2022-02-04)"
   xmlns:inkscape="http://www.inkscape.org/namespaces/inkscape"
   xmlns:sodipodi="http://sodipodi.sourceforge.net/DTD/sodipodi-0.dtd"
   xmlns:xlink="http://www.w3.org/1999/xlink"
   xmlns="http://www.w3.org/2000/svg"
   xmlns:svg="http://www.w3.org/2000/svg">
  <defs
     id="defs18">
    <linearGradient
       inkscape:collect="always"
       xlink:href="#linearGradient4338"
       id="linearGradient1024"
       gradientUnits="userSpaceOnUse"
       gradientTransform="matrix(0,-0.11328125,0.11327801,0,-16.488473,51)"
       x1="459.03448"
       y1="419.23337"
       x2="35.310345"
       y2="207.36522" />
    <linearGradient
       inkscape:collect="always"
       id="linearGradient4338">
      <stop
         style="stop-color:#f2f2f2;stop-opacity:1"
         offset="0"
         id="stop4340" />
      <stop
         style="stop-color:#f9f9f9;stop-opacity:1"
         offset="1"
         id="stop4342" />
    </linearGradient>
    <linearGradient
       inkscape:collect="always"
       xlink:href="#linearGradient927"
       id="linearGradient1004"
       x1="344"
       y1="62"
       x2="344"
       y2="106"
       gradientUnits="userSpaceOnUse"
       gradientTransform="translate(-324.99855,-61)" />
    <linearGradient
       inkscape:collect="always"
       id="linearGradient927">
      <stop
         style="stop-color:#ffffff;stop-opacity:1;"
         offset="0"
         id="stop923" />
      <stop
         id="stop933"
         offset="0.125"
         style="stop-color:#ffffff;stop-opacity:0.09803922" />
      <stop
         id="stop931"
         offset="0.92500001"
         style="stop-color:#ffffff;stop-opacity:0.09803922" />
      <stop
         style="stop-color:#ffffff;stop-opacity:0.49803922"
         offset="1"
         id="stop925" />
    </linearGradient>
  </defs>
  <sodipodi:namedview
     id="namedview16"
     pagecolor="#ffffff"
     bordercolor="#666666"
     borderopacity="1.0"
     inkscape:pageshadow="2"
     inkscape:pageopacity="0.0"
     inkscape:pagecheckerboard="0"
     showgrid="false"
     fit-margin-top="0"
     fit-margin-left="0"
     fit-margin-right="0"
     fit-margin-bottom="0"
     inkscape:zoom="1.4042969"
     inkscape:cx="-35.961057"
     inkscape:cy="-211.13769"
     inkscape:window-width="1280"
     inkscape:window-height="960"
     inkscape:window-x="0"
     inkscape:window-y="27"
     inkscape:window-maximized="1"
     inkscape:current-layer="svg14" />
  <path
     style="color:#000000;font-style:normal;font-variant:normal;font-weight:normal;font-stretch:normal;font-size:medium;line-height:normal;font-family:sans-serif;font-variant-ligatures:normal;font-variant-position:normal;font-variant-caps:normal;font-variant-numeric:normal;font-variant-alternates:normal;font-feature-settings:normal;text-indent:0;text-align:start;text-decoration:none;text-decoration-line:none;text-decoration-style:solid;text-decoration-color:#000000;letter-spacing:normal;word-spacing:normal;text-transform:none;writing-mode:lr-tb;direction:ltr;text-orientation:mixed;dominant-baseline:auto;baseline-shift:baseline;text-anchor:start;white-space:normal;shape-padding:0;clip-rule:nonzero;display:inline;overflow:visible;visibility:visible;opacity:0.1;isolation:auto;mix-blend-mode:normal;color-interpolation:sRGB;color-interpolation-filters:linearRGB;solid-color:#000000;solid-opacity:1;vector-effect:none;fill:#000000;fill-opacity:1;fill-rule:nonzero;stroke:none;stroke-width:2;stroke-linecap:butt;stroke-linejoin:miter;stroke-miterlimit:4;stroke-dasharray:none;stroke-dashoffset:0;stroke-opacity:1;marker:none;color-rendering:auto;image-rendering:auto;shape-rendering:auto;text-rendering:auto;enable-background:accumulate"
     d="M 10.731917,1 C 8.5090169,0.9661 6.7582369,1.0512 5.3178569,1.29297 c -1.44039,0.24178 -2.61905,0.6953 -3.48243,1.55664 -0.86336999,0.86134 -1.31905999,2.03947 -1.55858999,3.48047 -0.23953,1.441 -0.28629,3.19534 -0.27539,5.42383 V 24 36.25195 c -0.0108,2.22507 0.0361,3.97852 0.27539,5.41797 0.23953,1.441 0.69522,2.61913 1.55858999,3.48047 0.86338,0.86134 2.04204,1.31486 3.48243,1.55664 C 6.7582469,46.94882 8.5087569,47 10.731917,47 h 16.53906 c 2.22316,0 3.97276,-0.0511 5.41016,-0.29297 1.4374,-0.24189 2.61246,-0.69694 3.47265,-1.55859 0.8602,-0.86165 1.3132,-2.03894 1.55469,-3.47852 0.24149,-1.43957 0.29297,-3.19035 0.29297,-5.41797 V 24 12 L 27.270977,1.25195 Z"
     id="path1020"
     inkscape:connector-curvature="0"
     sodipodi:nodetypes="sccsccccccsscccscccs" />
  <path
     style="color:#000000;display:inline;overflow:visible;visibility:visible;opacity:0.2;fill:none;fill-opacity:1;fill-rule:nonzero;stroke:#000000;stroke-width:2;stroke-miterlimit:4;stroke-dasharray:none;stroke-opacity:1;marker:none;enable-background:accumulate"
     d="M 10.732527,1 C 1.9083469,1 0.95887691,1.90635 1.0021269,10.74838 V 23 35.25162 C 0.95882691,44.09365 1.9083469,45 10.732527,45 h 16.53919 c 8.82418,0 9.7304,-0.90625 9.7304,-9.74838 V 23 l -6.7e-4,-12 -10,-10 z"
     id="path958"
     inkscape:connector-curvature="0"
     sodipodi:nodetypes="scccssscccs" />
  <path
     style="color:#000000;display:inline;overflow:visible;visibility:visible;fill:url(#linearGradient1024);fill-opacity:1;fill-rule:nonzero;stroke:none;stroke-width:1;marker:none;enable-background:accumulate"
     d="M 10.732527,1 C 1.9083469,1 0.95887691,1.90635 1.0021269,10.74838 V 23 35.25162 C 0.95882691,44.09365 1.9083469,45 10.732527,45 h 16.53919 c 8.82418,0 9.7304,-0.90625 9.7304,-9.74838 V 23 l -6.7e-4,-12 -10,-10 z"
     id="path964"
     inkscape:connector-curvature="0"
     sodipodi:nodetypes="scccssscccs" />
  <g
     transform="matrix(0.10483755,0,0,0.10483755,5.1631769,14.58121)"
     id="g12"
     style="display:inline;enable-background:new">
    <path
       fill="#b9c0d4"
       d="M 75.473,180.686 68.143,232 A 119.996,119.996 0 0 1 128.418,8 119.999,119.999 0 0 1 237.962,176.038 120,120 0 0 1 187.858,232 l -7.331,-51.314 A 74.396,74.396 0 0 0 128.26,53.599 74.4,74.4 0 0 0 59.616,157.306 a 74.389,74.389 0 0 0 15.857,23.38 z"
       id="path6" />
    <path
       fill="#404968"
       d="m 173,128 c 0,19.302 -12.153,35.766 -29.224,42.157 L 156.75,248 h -57.5 l 12.974,-77.843 C 95.153,163.766 83,147.302 83,128 c 0,-24.853 20.147,-45 45,-45 24.853,0 45,20.147 45,45 z"
       id="path8" />
    <path
       fill="#ed7f22"
       stroke="#ffffff"
       stroke-width="5"
       d="m 253.07695,166.02273 c 0.72791,1.979 0.11373,4.18549 -1.45583,5.59582 l -9.84955,8.96241 c 0.25022,1.88803 0.3867,3.82154 0.3867,5.7778 0,1.95626 -0.13648,3.88979 -0.3867,5.7778 l 9.84955,8.96242 c 1.56956,1.41033 2.18374,3.61682 1.45583,5.59583 -1.00088,2.70692 -2.20649,5.3001 -3.59407,7.8023 l -1.06912,1.84253 c -1.50131,2.5022 -3.18461,4.86791 -5.02714,7.09714 -1.34208,1.6378 -3.57131,2.18374 -5.57307,1.54682 l -12.67022,-4.02627 c -3.04814,2.34297 -6.41473,4.29923 -10.00879,5.7778 l -2.84341,12.98868 c -0.45495,2.07 -2.04725,3.70781 -4.14,4.04901 -3.13912,0.52319 -6.36923,0.79615 -9.66758,0.79615 -3.29835,0 -6.52846,-0.27296 -9.66758,-0.79615 -2.09274,-0.3412 -3.68505,-1.97901 -4.14,-4.04901 l -2.8434,-12.98868 c -3.59407,-1.47857 -6.96067,-3.43483 -10.0088,-5.7778 l -12.64747,4.04901 c -2.00175,0.63693 -4.23098,0.0683 -5.57307,-1.54681 -1.84253,-2.22924 -3.52582,-4.59495 -5.02715,-7.09715 l -1.06912,-1.84252 c -1.38757,-2.5022 -2.59318,-5.09539 -3.59406,-7.80231 -0.72791,-1.97901 -0.11374,-4.18549 1.45582,-5.59582 l 9.84956,-8.96242 c -0.25022,-1.91076 -0.3867,-3.84429 -0.3867,-5.80055 0,-1.95626 0.13648,-3.88977 0.3867,-5.7778 l -9.84956,-8.96241 c -1.56956,-1.41033 -2.18373,-3.61682 -1.45582,-5.59582 1.00088,-2.70693 2.20649,-5.30011 3.59406,-7.80231 l 1.06912,-1.84253 c 1.50133,-2.50219 3.18462,-4.86791 5.02715,-7.09714 1.34209,-1.6378 3.57132,-2.18373 5.57307,-1.54681 l 12.67022,4.02626 c 3.04813,-2.34296 6.41473,-4.29923 10.0088,-5.7778 l 2.8434,-12.98868 c 0.45495,-2.07 2.04725,-3.7078 4.14,-4.04901 3.13912,-0.54593 6.36923,-0.8189 9.66758,-0.8189 3.29835,0 6.52846,0.27297 9.66758,0.79615 2.09275,0.34121 3.68506,1.97901 4.14,4.04901 l 2.84341,12.98868 c 3.59406,1.47857 6.96065,3.43484 10.00878,5.7778 l 12.67022,-4.02626 c 2.00176,-0.63692 4.23099,-0.0682 5.57308,1.54681 1.84253,2.22923 3.52582,4.59495 5.02714,7.09714 l 1.06912,1.84253 c 1.38759,2.5022 2.59319,5.09539 3.59407,7.80231 z m -54.57065,38.53384 a 18.197805,18.197805 0 1 0 0,-36.39561 18.197805,18.197805 0 1 0 0,36.39561 z"
       id="path10" />
  </g>
  <path
     style="color:#000000;display:inline;overflow:visible;visibility:visible;opacity:0.2;fill:#ffffff;fill-opacity:1;fill-rule:nonzero;stroke:none;stroke-width:1;marker:none;enable-background:accumulate"
     d="M 1.0014469,23 V 35.25195 C 0.95814691,44.09398 1.9077369,45 10.731917,45 h 16.53906 c 8.82418,0 9.73047,-0.90592 9.73047,-9.74805 V 23 Z"
     id="path1006"
     inkscape:connector-curvature="0" />
  <path
     style="color:#000000;display:inline;overflow:visible;visibility:visible;opacity:0.1;fill:#ffffff;fill-opacity:1;fill-rule:nonzero;stroke:none;stroke-width:1;marker:none;enable-background:accumulate"
     d="m 19.001447,1 v 44 h 8.26953 c 8.82418,0 9.73047,-0.90592 9.73047,-9.74805 V 23 11 l -10,-10 z"
     id="path1013"
     inkscape:connector-curvature="0"
     sodipodi:nodetypes="ccsscccc" />
  <path
     style="color:#000000;font-style:normal;font-variant:normal;font-weight:normal;font-stretch:normal;font-size:medium;line-height:normal;font-family:sans-serif;font-variant-ligatures:normal;font-variant-position:normal;font-variant-caps:normal;font-variant-numeric:normal;font-variant-alternates:normal;font-feature-settings:normal;text-indent:0;text-align:start;text-decoration:none;text-decoration-line:none;text-decoration-style:solid;text-decoration-color:#000000;letter-spacing:normal;word-spacing:normal;text-transform:none;writing-mode:lr-tb;direction:ltr;text-orientation:mixed;dominant-baseline:auto;baseline-shift:baseline;text-anchor:start;white-space:normal;shape-padding:0;clip-rule:nonzero;display:inline;overflow:visible;visibility:visible;opacity:0.4;isolation:auto;mix-blend-mode:normal;color-interpolation:sRGB;color-interpolation-filters:linearRGB;solid-color:#000000;solid-opacity:1;vector-effect:none;fill:url(#linearGradient1004);fill-opacity:1;fill-rule:nonzero;stroke:none;stroke-width:2;stroke-linecap:butt;stroke-linejoin:miter;stroke-miterlimit:4;stroke-dasharray:none;stroke-dashoffset:0;stroke-opacity:1;marker:none;color-rendering:auto;image-rendering:auto;shape-rendering:auto;text-rendering:auto;enable-background:accumulate"
     clip-path="none"
     d="M 10.731917,1 C 1.9077369,1 0.95819691,1.90602 1.0014469,10.74805 V 23 35.25195 C 0.95814691,44.09398 1.9077369,45 10.731917,45 h 16.53906 c 8.82418,0 9.73047,-0.90592 9.73047,-9.74805 V 23 11 h -1 v 12 12.25195 c 0,2.19345 -0.0614,3.8707 -0.26562,5.08789 -0.20419,1.2172 -0.52867,1.92434 -0.99805,2.39454 -0.46938,0.47015 -1.17436,0.79563 -2.38867,1 C 31.134787,43.93872 29.459907,44 27.270977,44 h -16.53906 c -2.1889301,0 -3.8658901,-0.0612 -5.0839901,-0.26562 -1.21809,-0.20449 -1.92877,-0.5295 -2.40039,-1 -0.47161,-0.47053 -0.79596,-1.17682 -0.99804,-2.39258 -0.20209,-1.21576 -0.25879,-2.89341 -0.24805,-5.08594 V 35.25386 23 10.74609 v -0.002 c -0.0107,-2.19252 0.046,-3.87017 0.24805,-5.08593 0.20209,-1.21577 0.52643,-1.92208 0.99804,-2.39258 0.47161,-0.4705 1.18426,-0.79553 2.40235,-1 C 6.8679769,2.0612 8.5429869,2 10.731917,2 h 16.26953 V 1 Z"
     id="path990"
     inkscape:connector-curvature="0" />
  <path
     inkscape:connector-curvature="0"
     style="color:#000000;display:inline;overflow:visible;visibility:visible;opacity:0.2;fill:#000000;fill-opacity:1;fill-rule:nonzero;stroke:none;stroke-width:0.250023;marker:none;enable-background:accumulate"
     d="m 37.001447,12 v -1 l -10,-10 h -1 v 4.20905 0.16128 0.0866 c 0,5.69198 0.76196,6.56967 6.467,6.54177 z"
     id="rect4158-0-3-62-2"
     sodipodi:nodetypes="ccccccscc" />
  <path
     inkscape:connector-curvature="0"
     style="color:#000000;display:inline;overflow:visible;visibility:visible;fill:#faf8f6;fill-opacity:1;fill-rule:nonzero;stroke:none;stroke-width:0.250023;marker:none;enable-background:accumulate"
     d="M 37.001447,10.99872 27.001447,1 v 3.70894 0.16127 0.0866 c 0,5.69198 0.26232,6.06979 5.96736,6.04189 z"
     id="rect4158-0-3-62"
     sodipodi:nodetypes="ccccscc" />
</svg>
